<?xml version="1.0" encoding="utf-8"?>
<!DOCTYPE svg PUBLIC "-//W3C//DTD SVG 1.1//EN" "http://www.w3.org/Graphics/SVG/1.1/DTD/svg11.dtd">
<svg version="1.1" id="Layer_1" xmlns="http://www.w3.org/2000/svg" xmlns:xlink="http://www.w3.org/1999/xlink" x="0px" y="0px"
	 width="100px" height="100px" viewBox="0 0 100 100" style="enable-background:new 0 0 100 100;" xml:space="preserve">
<path style="fill:#46495E;" d="M100,94c0,3.313-2.687,6-6,6H6c-3.313,0-6-2.687-6-6V6c0-3.313,2.687-6,6-6h88c3.313,0,6,2.687,6,6
	V94z"/>
<g>
	<path style="fill:#FFFFFF;" d="M36.725,27.854l-0.412,0.978L24.492,40.65C24.217,40.926,23,42,23,42l-1,1v-3.327V33h-9.61
		C12.014,33,11,33,11,33v-0.975v-8.344C11,23.304,11,22,11,22h1.39H22v-5.966C22,15.658,22,13,22,13v-1l2.477,3.055l11.828,11.819
		L36.725,27.854z M44,20.206v15.296c0,1.723-0.426,3.318-1.648,4.541C41.128,41.267,39.838,42,38.116,42h-6.952H30v-3
		c0,0,0.976,0,1.164,0h5.952c0.956,0,1.978-0.352,2.658-1.032S41,36.457,41,35.502V20.206c0-0.957-0.545-1.638-1.226-2.321
		C39.094,17.204,38.072,17,37.116,17h-5.259C31.844,17,30,17,30,17v-3h1.164h6.952c1.722,0,3.012,0.586,4.235,1.81
		C43.574,17.034,44,18.481,44,20.206z"/>
	<path style="fill:#FFFFFF;" d="M89,18.257v20.857c0,1.724-0.677,3.012-1.898,4.235C85.877,44.574,84.337,45,82.614,45H61.755
		c-1.722,0-2.947-0.426-4.169-1.65C56.361,42.126,56,40.838,56,39.114V18.257c0-1.725,0.361-3.198,1.586-4.422
		C58.808,12.612,60.033,12,61.755,12h20.859c1.723,0,3.263,0.612,4.487,1.834C88.323,15.059,89,16.532,89,18.257z M83.896,30l0.5-6
		H79v-1.962c0-0.711,0.658-1.27,0.883-1.551C80.107,20.204,81.174,20,81.983,20H85v-4h-4.428c-2.203,0-3.481,0.206-4.439,1.247
		C75.179,18.289,75,19.517,75,21.559V24h-4v6h4v13h4V30H83.896z"/>
	<path style="fill:#FFFFFF;" d="M44,61.643V82.5c0,1.724-0.078,2.819-1.301,4.043C41.476,87.769,40.534,88,38.812,88H17.953
		c-1.723,0-3.547-0.231-4.769-1.456C11.96,85.319,11,84.225,11,82.5V61.643c0-1.724,0.96-3.39,2.185-4.614
		C14.406,55.804,16.23,55,17.953,55h20.859c1.722,0,2.663,0.804,3.887,2.029C43.922,58.253,44,59.918,44,61.643z M39.508,65.857
		c-0.812,0.363-1.688,0.608-2.629,0.74c0.984-0.58,1.657-1.428,2.021-2.542c-0.942,0.55-1.913,0.918-2.913,1.107
		c-0.884-0.955-1.992-1.434-3.322-1.434c-1.261,0-2.337,0.445-3.229,1.336c-0.89,0.892-1.334,1.966-1.334,3.226
		c0,0.42,0.035,0.768,0.107,1.044c-1.869-0.103-3.621-0.572-5.258-1.413s-3.027-1.962-4.172-3.369
		c-0.42,0.724-0.631,1.492-0.631,2.304c0,1.65,1.183,2.918,2.502,3.803C19.97,70.645,19,70.457,19,70.095v0.044
		c0,1.085-0.159,2.053,0.563,2.899c0.726,0.848,1.353,1.373,2.411,1.576c-0.42,0.116-0.921,0.173-1.239,0.173
		c-0.188,0-0.536-0.029-0.911-0.086c0.303,0.913,0.81,1.666,1.584,2.259c0.775,0.595,1.639,0.899,2.625,0.913
		c-1.682,1.304-3.578,1.956-5.682,1.956c-0.376,0-0.74-0.022-1.089-0.066c2.143,1.363,4.474,2.044,6.995,2.044
		c1.621,0,3.142-0.257,4.56-0.772c1.419-0.513,2.636-1.202,3.65-2.065c1.013-0.861,1.886-1.854,2.618-2.975
		c0.731-1.124,1.273-2.296,1.629-3.521c0.355-1.224,0.532-2.445,0.532-3.662c0-0.26-0.007-0.456-0.021-0.585
		C38.139,67.574,38.899,66.786,39.508,65.857z"/>
	<path style="fill:#FFFFFF;" d="M89,67v14.943c0,1.724-0.537,3.097-1.76,4.321C86.016,87.489,84.614,88,82.893,88h-10.17
		c0.564,0,0.848-2.093,0.848-3.31c0-0.956-0.159-1.792-0.477-2.61c-0.32-0.821-0.723-1.468-1.207-1.997
		c-0.485-0.528-1.006-1.031-1.564-1.531c-0.558-0.5-1.078-0.924-1.563-1.288c-0.487-0.361-0.888-0.752-1.207-1.18
		c-0.317-0.426-0.478-0.856-0.478-1.292c0-0.521,0.166-1.013,0.5-1.477c0.333-0.462,0.738-0.907,1.217-1.335
		c0.478-0.426,0.953-0.894,1.422-1.401c0.472-0.506,0.873-1.181,1.207-2.021c0.333-0.838,0.498-1.787,0.498-2.846
		c0-1.057-0.191-2.11-0.574-3.162c-0.383-1.05-0.932-1.907-1.641-2.574c-0.087-0.087-0.188-0.166-0.304-0.24
		c-0.116-0.072-0.207-0.125-0.272-0.162c-0.064-0.036-0.139-0.104-0.216-0.207C68.831,59.268,68.755,59,68.683,59h2.932l2.934-2
		h-9.494c-1.999,0-3.771,0.584-5.312,1.141c-1.545,0.56-2.865,1.676-3.967,3.053c0-1.825,0.588-3.205,1.761-4.466
		C58.709,55.467,60.207,55,62.033,55h20.859c1.722,0,3.123,0.527,4.348,1.749c1.223,1.225,1.76,2.612,1.76,4.337V63h-4v-6h-4v6h-6v4
		h6v5h4v-5H89z M64.253,79.033C60.863,79.133,58,79.75,56,80.879v-9.407c1,1.709,3.358,2.563,5.819,2.563
		c0.465,0,0.915-0.036,1.466-0.108c-0.305,0.884-0.43,1.507-0.43,1.869C62.855,76.767,63.341,77.844,64.253,79.033z M70.508,86.558
		c0,0.551-0.074,1.442-0.219,1.442h-8.256c-1.375,0-2.619-0.308-3.727-1.127c-1.107-0.817-1.857-1.834-2.248-3.154
		c0.347-0.65,0.847-1.188,1.498-1.658c0.652-0.472,1.377-0.816,2.174-1.063c0.797-0.245,1.572-0.415,2.324-0.516
		c0.754-0.103,1.529-0.148,2.326-0.148c0.461,0,0.816,0.015,1.064,0.045c0.086,0.057,0.308,0.209,0.662,0.456
		c0.355,0.245,0.594,0.414,0.716,0.5c0.124,0.087,0.349,0.255,0.675,0.5c0.325,0.247,0.557,0.432,0.694,0.555
		c0.139,0.124,0.339,0.308,0.599,0.553c0.261,0.247,0.453,0.46,0.576,0.641c0.121,0.183,0.273,0.403,0.456,0.664
		c0.181,0.26,0.306,0.509,0.38,0.749c0.072,0.24,0.141,0.449,0.206,0.734C70.474,86.012,70.508,86.253,70.508,86.558z M67.899,67.93
		c0,1.449-0.315,2.61-0.944,3.487c-0.63,0.876-1.648,1.316-3.054,1.316c-0.737,0-1.44-0.188-2.106-0.565
		c-0.668-0.376-1.232-0.867-1.695-1.468c-0.465-0.601-0.869-1.277-1.217-2.03c-0.348-0.755-0.605-1.507-0.771-2.26
		c-0.167-0.753-0.251-1.47-0.251-2.15c0-1.392,0.373-2.585,1.12-3.585c0.745-1,1.792-1.5,3.139-1.5c0.956,0,1.817,0.298,2.585,0.892
		c0.769,0.593,1.377,1.346,1.826,2.258c0.448,0.913,0.789,1.855,1.021,2.825C67.783,66.12,67.899,67.046,67.899,67.93z"/>
</g>
</svg>
