<?xml version="1.0" encoding="utf-8"?>
<!DOCTYPE svg PUBLIC "-//W3C//DTD SVG 1.1//EN" "http://www.w3.org/Graphics/SVG/1.1/DTD/svg11.dtd">
<svg version="1.1" id="Layer_1" xmlns="http://www.w3.org/2000/svg" xmlns:xlink="http://www.w3.org/1999/xlink" x="0px" y="0px"
	 width="55px" height="55px" viewBox="0 0 55 55" style="enable-background:new 0 0 55 55;" xml:space="preserve">
<g>
	<path d="M20.214,15.144c0,0.193-0.07,0.36-0.212,0.502l-6.071,6.071c-0.142,0.142-0.309,0.212-0.502,0.212s-0.361-0.07-0.502-0.212
		c-0.142-0.142-0.213-0.309-0.213-0.502V18h-5c-0.193,0-0.36-0.07-0.502-0.212C7.07,17.647,7,17.479,7,17.286V13
		c0-0.193,0.07-0.36,0.212-0.502s0.309-0.212,0.502-0.212h5V9.072c0-0.193,0.071-0.361,0.213-0.503
		c0.141-0.141,0.309-0.212,0.502-0.212s0.36,0.071,0.502,0.212l6.071,6.071C20.144,14.782,20.214,14.95,20.214,15.144z
		 M24.143,11.215v7.857c0,0.885-0.314,1.643-0.942,2.271c-0.629,0.629-1.387,0.943-2.271,0.943h-3.571
		c-0.097,0-0.181-0.035-0.251-0.106C17.035,22.109,17,22.025,17,21.929c0-0.029-0.004-0.104-0.011-0.223
		c-0.008-0.119-0.01-0.218-0.006-0.296s0.015-0.166,0.033-0.263s0.056-0.169,0.111-0.218c0.057-0.048,0.133-0.072,0.229-0.072h3.571
		c0.491,0,0.911-0.175,1.261-0.524s0.524-0.771,0.524-1.261v-7.857c0-0.491-0.175-0.911-0.524-1.262
		c-0.35-0.35-0.77-0.524-1.261-0.524h-3.215c-0.007,0-0.048,0-0.122,0c-0.075,0-0.123,0-0.146,0s-0.065-0.003-0.128-0.011
		c-0.063-0.008-0.106-0.019-0.129-0.033c-0.022-0.016-0.052-0.036-0.089-0.062c-0.037-0.026-0.063-0.06-0.078-0.101
		S17,9.132,17,9.072c0-0.03-0.004-0.104-0.011-0.224c-0.008-0.119-0.01-0.218-0.006-0.296s0.015-0.165,0.033-0.262
		s0.056-0.17,0.111-0.218C17.185,8.024,17.261,8,17.357,8h3.571c0.885,0,1.643,0.314,2.271,0.943
		C23.828,9.572,24.143,10.329,24.143,11.215z"/>
	<path d="M47,10.214v10.714c0,0.886-0.314,1.571-0.942,2.2C45.429,23.757,44.671,24,43.786,24H33.071
		c-0.885,0-1.571-0.243-2.199-0.872C30.243,22.499,30,21.813,30,20.928V10.214c0-0.886,0.243-1.643,0.872-2.271
		C31.5,7.314,32.187,7,33.071,7h10.715c0.885,0,1.643,0.314,2.271,0.942C46.686,8.571,47,9.328,47,10.214z M44.444,16l0.257-3H42
		v-0.844c0-0.365,0.303-0.707,0.418-0.852C42.533,11.159,43.046,11,43.462,11H45V9h-2.263c-1.132,0-1.726,0.133-2.218,0.668
		C40.029,10.203,40,10.861,40,11.91V13h-2v3h2v7h2v-7H44.444z"/>
	<path d="M24,32.5v10.714c0,0.886-0.064,1.429-0.692,2.058C22.679,45.9,22.171,46,21.286,46H10.571c-0.885,0-1.821-0.1-2.449-0.729
		C7.493,44.643,7,44.1,7,43.214V32.5c0-0.886,0.493-1.785,1.122-2.414C8.75,29.457,9.687,29,10.571,29h10.715
		c0.885,0,1.393,0.457,2.021,1.086C23.936,30.715,24,31.614,24,32.5z M21.644,34.665c-0.417,0.187-0.867,0.312-1.351,0.38
		c0.506-0.298,0.852-0.733,1.038-1.306c-0.484,0.282-0.982,0.472-1.496,0.568c-0.454-0.49-1.023-0.736-1.707-0.736
		c-0.647,0-1.2,0.229-1.658,0.687c-0.457,0.458-0.686,1.01-0.686,1.657c0,0.216,0.019,0.395,0.056,0.536
		c-0.96-0.053-1.86-0.294-2.701-0.726s-1.555-1.008-2.143-1.73c-0.216,0.372-0.324,0.767-0.324,1.184
		c0,0.848,0.553,1.499,1.23,1.953C11.553,37.124,11,37.027,11,36.842v0.022c0,0.558-0.027,1.055,0.344,1.489
		c0.373,0.436,0.723,0.705,1.267,0.81c-0.216,0.06-0.46,0.089-0.623,0.089c-0.097,0-0.269-0.015-0.462-0.044
		c0.156,0.469,0.42,0.855,0.817,1.16c0.398,0.306,0.844,0.462,1.35,0.469c-0.863,0.67-1.837,1.005-2.917,1.005
		c-0.193,0-0.38-0.012-0.559-0.034c1.101,0.7,2.298,1.05,3.593,1.05c0.833,0,1.614-0.132,2.343-0.396
		c0.729-0.264,1.354-0.617,1.875-1.061c0.521-0.442,0.969-0.952,1.345-1.528c0.376-0.577,0.654-1.18,0.837-1.809
		s0.273-1.256,0.273-1.881c0-0.134-0.004-0.234-0.011-0.301C20.94,35.547,21.331,35.142,21.644,34.665z"/>
	<path d="M47,35v7.928c0,0.886-0.243,1.571-0.871,2.2C45.5,45.757,44.813,46,43.929,46h-5.224c0.29,0,0.436-1.056,0.436-1.681
		c0-0.491-0.082-0.911-0.245-1.331c-0.164-0.422-0.371-0.749-0.62-1.021s-0.517-0.527-0.804-0.784
		c-0.286-0.257-0.554-0.474-0.803-0.66c-0.25-0.186-0.456-0.386-0.62-0.605c-0.163-0.219-0.245-0.439-0.245-0.663
		c0-0.268,0.085-0.521,0.257-0.759c0.171-0.237,0.379-0.466,0.625-0.686c0.245-0.219,0.489-0.459,0.73-0.72
		c0.242-0.26,0.448-0.606,0.62-1.038c0.171-0.431,0.256-0.918,0.256-1.462c0-0.543-0.099-1.084-0.295-1.624
		c-0.197-0.539-0.479-0.979-0.843-1.322c-0.045-0.045-0.097-0.085-0.156-0.123c-0.06-0.037-0.106-0.064-0.14-0.083
		s-0.071-0.125-0.111-0.178C36.706,31.209,36.667,31,36.63,31h1.506l1.507-1h-4.877c-1.026,0-1.937,0.357-2.729,0.644
		c-0.793,0.287-1.472,0.89-2.037,1.597c0-0.938,0.302-1.676,0.904-2.323S32.276,29,33.214,29h10.715c0.885,0,1.571,0.314,2.2,0.942
		C46.757,30.571,47,31.328,47,32.214V33h-2v-3h-2v3h-3v2h3v3h2v-3H47z M34.297,41.433c-1.741,0.052-3.174,0.368-4.297,0.948v-4.832
		c0.767,0.878,1.782,1.316,3.047,1.316c0.238,0,0.498-0.019,0.781-0.056c-0.156,0.454-0.234,0.774-0.234,0.96
		C33.594,40.269,33.828,40.822,34.297,41.433z M37.567,45.278c0,0.283-0.038,0.722-0.112,0.722h-4.241
		c-0.706,0-1.345-0.139-1.914-0.56c-0.568-0.42-0.954-0.933-1.154-1.61c0.178-0.334,0.435-0.605,0.77-0.847
		c0.335-0.242,0.707-0.417,1.116-0.544c0.409-0.126,0.808-0.212,1.194-0.264c0.387-0.053,0.785-0.075,1.194-0.075
		c0.237,0,0.42,0.008,0.547,0.023c0.044,0.029,0.158,0.107,0.34,0.234c0.183,0.126,0.306,0.213,0.368,0.257
		c0.063,0.045,0.179,0.131,0.347,0.257c0.167,0.127,0.286,0.222,0.356,0.285c0.071,0.063,0.174,0.158,0.308,0.284
		c0.134,0.127,0.232,0.236,0.296,0.329c0.062,0.094,0.141,0.207,0.234,0.341c0.093,0.134,0.157,0.262,0.195,0.385
		c0.037,0.123,0.072,0.221,0.105,0.367C37.55,45.008,37.567,45.122,37.567,45.278z M36.228,35.729c0,0.744-0.162,1.341-0.485,1.791
		s-0.847,0.676-1.568,0.676c-0.379,0-0.74-0.097-1.082-0.29c-0.343-0.193-0.633-0.445-0.871-0.754s-0.446-0.656-0.625-1.043
		c-0.179-0.388-0.311-0.774-0.396-1.161c-0.086-0.387-0.129-0.755-0.129-1.104c0-0.715,0.191-1.328,0.575-1.842
		c0.383-0.514,0.921-0.771,1.612-0.771c0.491,0,0.934,0.153,1.328,0.458s0.707,0.691,0.938,1.16s0.405,0.953,0.524,1.451
		C36.168,34.8,36.228,35.275,36.228,35.729z"/>
</g>
</svg>
